#format: frame checksums
#version: 2
#hash: MD5
#tb 0: 1/8000
#media_type 0: audio
#codec_id 0: pcm_s16le
#sample_rate 0: 8000
#channel_layout_name 0: mono
#stream#, dts,        pts, duration,     size, hash
0,          0,          0,      256,      512, e835d2231a27f8a18ed4e25e9c0d1540
0,        256,        256,      256,      512, df76f833e51083e9552420eaee13141b
0,        512,        512,      256,      512, 2584bcd2b294f33ba16a8558a9552900
0,        768,        768,      256,      512, 7937c41808ba06773143fb82e69a8c46
0,       1024,       1024,      256,      512, a10c020ef19864f968e7b2f0be104eec
0,       1280,       1280,      256,      512, 1a83b18aeab10836461504c9985220b1
0,       1536,       1536,      256,      512, c05c12dfa764b7e988cb0cf9e254859d
0,       1792,       1792,      256,      512, 8d358e6bdbf925d99778686fd638ff53
0,       2048,       2048,      256,      512, c09f63de013c58e9052facd57ec4c82a
0,       2304,       2304,      256,      512, 93a92b69795bfd361645ef07dff143fe
0,       2560,       2560,      256,      512, e7557271e8b19e27f156ed349d655675
0,       2816,       2816,      256,      512, 347b3f90d2c742e5b2e513ce555541d2
0,       3072,       3072,      256,      512, 962978e93f25555d259117aae1a1f3d6
0,       3328,       3328,      256,      512, cc55b6fc4e361a1b45bf35bfb2d9f37c
0,       3584,       3584,      256,      512, 508172380ebb3c6aaabd13af0a247274
0,       3840,       3840,      256,      512, 9dc2e87518cc0ef88c232270904e7060
0,       4096,       4096,      256,      512, e37c796827a9acec6fd305a58758dc01
0,       4352,       4352,      256,      512, f563303e1d5715ef9cfbbd75e41fb6a7
0,       4608,       4608,      256,      512, da56825b0c9abb78052b92031123f239
0,       4864,       4864,      256,      512, 67d5d9a5df61907419c4812eb81b13c9
0,       5120,       5120,      256,      512, bf835c8ba52aa2e4c70d44b7d1b6f799
0,       5376,       5376,      256,      512, 59af5ac1305cf43ae4617d7e60817ba0
0,       5632,       5632,      256,      512, 1ced87e23978f1bb11600456692e0f45
0,       5888,       5888,      256,      512, e7ebac8c074b712fb0a4eba7da414e8e
0,       6144,       6144,      256,      512, 263b92777221ceb2c7ff0a23a650c55a
0,       6400,       6400,      256,      512, 0a38c39c6a475b332501781762cedee7
0,       6656,       6656,      256,      512, 817cf55960ac090f05845e1b48ae7a74
0,       6912,       6912,      256,      512, 48bab97504a9fccdff33f6ddf6e331f3
0,       7168,       7168,      256,      512, d63ac4ae085ad0ca8ca0e6f6ae7fd585
0,       7424,       7424,      256,      512, c76304152721d17537a1a50da1686dc6
0,       7680,       7680,      256,      512, dcda5da0995a9abde300fdda19996e2b
0,       7936,       7936,      256,      512, e27f0d778820c658e83a105b9a71aa1d
0,       8192,       8192,      256,      512, 54edcf21f98d0318e0fb3d139b23c86f
0,       8448,       8448,      256,      512, 35ac64f66209996ba615a139ec8dbf34
0,       8704,       8704,      256,      512, 0eea4a904bcf284c2c93bad161dfba1e
0,       8960,       8960,      256,      512, 19b000260730521e9e3edbabe7117388
0,       9216,       9216,      256,      512, d4545f93f81af585500249b7608d9560
0,       9472,       9472,      256,      512, 4e7246cff6a8d7c05d096b73ece17fb8
0,       9728,       9728,      256,      512, 5f5308c625fee43a4a346271df5cace5
0,       9984,       9984,      256,      512, 3c9307cbae4bf454d7f2a866cc704298
0,      10240,      10240,      256,      512, 472f538766ce1f16b649c91739d9b5f4
0,      10496,      10496,      256,      512, fb316c63062d7331068340b80dfba0ef
0,      10752,      10752,      256,      512, 1be52e4f373d05b8a6bcac024dd68961
0,      11008,      11008,      256,      512, 0bab43d1dad15b07e939a5d8de571dfa
0,      11264,      11264,      256,      512, 7c2d1fe54d89d4fcf95757aedeb6ed44
0,      11520,      11520,      256,      512, a5db3d10ecacceb2473c3afd99937c17
0,      11776,      11776,      256,      512, aa0639e354801f31f36a3aeb123de459
0,      12032,      12032,      256,      512, 7cdea6625bb01c2fa9e6e1f4016b64ea
0,      12288,      12288,      256,      512, 5822e93fe22fd03e61588d757d6d6d6c
0,      12544,      12544,      256,      512, 778213aaabbc3c7c5072822373828574
0,      12800,      12800,      256,      512, e779c6183face53357152ace47663a99
0,      13056,      13056,      256,      512, 1ca1fb8e763fdad5f7fa8d2f35f803ce
0,      13312,      13312,      256,      512, 63c9984d4ff0cc96d7b26da7f5c939af
0,      13568,      13568,      256,      512, 1832e7e5b011705a56bc8c29d129be72
0,      13824,      13824,      256,      512, 46c1291bfb9d540dc8a856ee4a326135
0,      14080,      14080,      256,      512, 336595dffbd6af4aeadacf427aa456c7
0,      14336,      14336,      256,      512, edee4cc5b19461d49e611cc04821cdad
0,      14592,      14592,      256,      512, e4f941624b9bec5420e61e0856f18abb
0,      14848,      14848,      256,      512, 0e5f7aa284a215092f0c1660b4396baf
0,      15104,      15104,      256,      512, bb5693cb98d52bb28c28cc9140800d90
0,      15360,      15360,      256,      512, 1d67a58816c34f5e7668e3e76fd6b157
0,      15616,      15616,      256,      512, 5de3a54e8fa0639bd82b284bf3407fbf
0,      15872,      15872,      256,      512, e2468df2707d02912e65605e3704081f
0,      16128,      16128,      256,      512, 6d1d16e827c6ae5b84ef4c97bc85cddf
0,      16384,      16384,      256,      512, 06a536ffd9ad8d8fe5d344cad50626f5
0,      16640,      16640,      256,      512, 330f03aa02c9b096a5d52e137f1e5c78
0,      16896,      16896,      256,      512, 027c40719894b7fee39739b7a2411a0c
0,      17152,      17152,      256,      512, 009e851e5f73457ac736b72c3723e4b1
0,      17408,      17408,      256,      512, 6d777acc92ef2e2c36ac4d1bdcfe81b2
0,      17664,      17664,      256,      512, bfc689b097d0d4d870dd1b643fc5ed0d
0,      17920,      17920,      256,      512, a7c6ca3f6481a5b1a4a533dad9f6af29
0,      18176,      18176,      256,      512, 0e7672283cc81d67e4eae1308096bccd
0,      18432,      18432,      256,      512, 64265fa7570d99c9fee456b4e25300ac
0,      18688,      18688,      256,      512, c4b99ac5cbdc2fa3763f1d8bbd7e4c4b
0,      18944,      18944,      256,      512, 877437cb5c5e3e7d3ec4a76597338cbd
0,      19200,      19200,      256,      512, b94510ee6631e0014d191e79e988e3ab
0,      19456,      19456,      256,      512, 3f09826dd6ec49243d94ef6810c24630
0,      19712,      19712,      256,      512, 1e7e99985ee8192ee5ed3e79e9762826
0,      19968,      19968,      256,      512, 01ad5e1396f1c66e08b75ec4badf2e92
0,      20224,      20224,      256,      512, 9734148ae45bc2bb277ffdb4e2befee0
0,      20480,      20480,      256,      512, 4d7c9c7e6a181ca9e6e84d1f933117e9
0,      20736,      20736,      256,      512, 9c5328fbeda9e6445d649e2c646ad400
0,      20992,      20992,      256,      512, 2504f429e5da8a81568cc4966c9c761d
0,      21248,      21248,      256,      512, 9d69c3cbeb46abfc33e33ec15ea0ca63
0,      21504,      21504,      256,      512, bf7e9c9ab20a54dc032e7e4729dbd3dd
0,      21760,      21760,      256,      512, ea2e8baa808b019e57bc7ee6455e654d
0,      22016,      22016,      256,      512, 0e55fc99eb4c5b33702cfe638f7772cd
0,      22272,      22272,      256,      512, d876800b0d50c86021722fdbd48b0c79
0,      22528,      22528,      256,      512, 9985f8b81142841b6a6641b0ea5d63b8
0,      22784,      22784,      256,      512, 0c2a884a002da94d3fc641eb0ce2720c
0,      23040,      23040,      256,      512, 3e4b828369ac2787f615a463b60073f6
0,      23296,      23296,      256,      512, 4c11b0985b7f4ce79946ce094fd17f9f
0,      23552,      23552,      256,      512, 479b747401bab25824ee7ba4a7398d48
0,      23808,      23808,      256,      512, d213587388c94d6be19e5f4f43951e93
0,      24064,      24064,      256,      512, d3db67978152fb301df1ad67252e4d29
0,      24320,      24320,      256,      512, 3fa1121a49877eda099458ed86fba884
0,      24576,      24576,      256,      512, c68d0a6fa3464dac1e172c150fdc54d7
0,      24832,      24832,      256,      512, 71375d62bbcdff1ffcca600820a504eb
0,      25088,      25088,      256,      512, 512023030d922604db4a64d622447193
0,      25344,      25344,      256,      512, c4f92fccff2c3f0decd4d19f18b76965
0,      25600,      25600,      256,      512, 2eaa88ebe222e5a049bdcc66f046f524
0,      25856,      25856,      256,      512, 653cbbda2dd87d4c9d06a60e84c1c1a0
0,      26112,      26112,      256,      512, 2c1e73fd9740134713f54c98e6ad9f35
0,      26368,      26368,      256,      512, 4c0697c97bb0333c176c344b596827ed
0,      26624,      26624,      256,      512, e9987d211c7401b1e1ff77ead994dcf8
0,      26880,      26880,      256,      512, d6b80c4347277cb7718189ee1e0c3147
0,      27136,      27136,      256,      512, 0da23e3c27c092dd3766a3b9c2177501
0,      27392,      27392,      256,      512, c1f5e0869b354e3835ecb260cab57f1c
0,      27648,      27648,      256,      512, 57f6f7c70cc29588a0d3a3460fcbd509
0,      27904,      27904,      256,      512, 99b9acd56dd667f8e407e1635653d4b4
0,      28160,      28160,      256,      512, 1760f98327c9d00a9f6dce93d2b514dc
0,      28416,      28416,      256,      512, 97a07abc22001b0b2e9c208302ba9e35
0,      28672,      28672,      256,      512, 50e6f0c652b39f5e493dc0764ca7452d
0,      28928,      28928,      256,      512, 07c6e099814513a0eea29afe64dd97ec
0,      29184,      29184,      256,      512, 19b968229bd5482e6b38b07c0780ca0b
0,      29440,      29440,      256,      512, 6fa01d4fef43ab004efc82c7ed380bc5
0,      29696,      29696,      256,      512, 8d2ca8bfd3d263ea20f9b51f8d3477de
0,      29952,      29952,      256,      512, 56675c745719ba059d1ae153f9e623a8
0,      30208,      30208,      256,      512, bb2826d27b37f04f261a2a47b23104c6
0,      30464,      30464,      256,      512, 8b15003af3297b2435394f65cbbf85e2
0,      30720,      30720,      256,      512, d79347e1f77738e842cfa1a5088b712f
0,      30976,      30976,      256,      512, a36e57aa1b900b4d06587068d86b0273
0,      31232,      31232,      256,      512, 73cda2ad15faa4fa374c42c53f99c376
0,      31488,      31488,      256,      512, d260d73f2a5856332075193a0c353f37
0,      31744,      31744,      256,      512, c522890161fe7e1df96f94e818cee59f
0,      32000,      32000,      256,      512, 964210c7aacafc50c06b8a424b45fe43
0,      32256,      32256,      256,      512, 5d9e85cdf7af5549381ade067969caae
0,      32512,      32512,      256,      512, 3a97199620d4d6bfa503dca94b63a8d6
0,      32768,      32768,      256,      512, 98230b4bcc65283791233f3c2ffccd55
0,      33024,      33024,      256,      512, 5a8309c49f9861924640827acd5ffb55
0,      33280,      33280,      256,      512, 18447a5468ab8430eb1fb4820f2befe9
0,      33536,      33536,      256,      512, 9c5a39fdd43865d2cdbed300984d5653
0,      33792,      33792,      256,      512, 3179875a983115554ab962dbb342f9a7
0,      34048,      34048,      256,      512, e9089435c41c80f1fe9a00044c7e6958
0,      34304,      34304,      256,      512, e91a7f5b452774c89b6a57489cd2b1d7
0,      34560,      34560,      256,      512, 65e43c76d2eb6263088e7ba0dba2e52f
0,      34816,      34816,      256,      512, 95d350665ef972f758f479660b26879c
0,      35072,      35072,      256,      512, a9f4d3f5c2df128d60414a03b7763bc6
0,      35328,      35328,      256,      512, 9572fc0a40090d374087536bcc2aa0fc
0,      35584,      35584,      256,      512, 1d41f66ec5f2ed30a30726a36482f1f8
0,      35840,      35840,      256,      512, 2977fe74d746dafa4a815c84f755f198
0,      36096,      36096,      256,      512, b86bb8f2905187242e2fb1f8ff04c707
0,      36352,      36352,      256,      512, 1ed7ab00c7fd70aaf64435c6a3b5aa20
0,      36608,      36608,      256,      512, fa968069c4f05732ecf6c4d6dca943f3
0,      36864,      36864,      256,      512, a31853de44b45a2358a12ba542b6614e
0,      37120,      37120,      256,      512, b4d1004fecd0222d9f4db556e96d65ac
0,      37376,      37376,      256,      512, c4d50f7892b56ece9026ba4d02c4fd62
0,      37632,      37632,      256,      512, 99b03aa35bf29545e1e3712249bf348a
0,      37888,      37888,      256,      512, 8834d2d11bc371375400b85df2b97b67
0,      38144,      38144,      256,      512, c9fb37b6be995882d3fbd44262b86146
0,      38400,      38400,      256,      512, ed1dd22f383e4fb1fde7b12e6a7cdb53
0,      38656,      38656,      256,      512, 0103ec85e8a783b33442ce9052a4c0e9
0,      38912,      38912,      256,      512, fa6bc81c62fab64a8ceb78b456277b84
0,      39168,      39168,      256,      512, a5c8f8e539a9867cd14cd248098fb37b
0,      39424,      39424,      256,      512, 5cbfdf1a30c2dd661d41f34eaf8071f2
0,      39680,      39680,      256,      512, 8f14f9fdc97ff6affefec91aa0d86afa
0,      39936,      39936,      256,      512, 63ce4ea475c1aaf4ea13488fef2221fa
0,      40192,      40192,      256,      512, 81494476c92360281d113b2cf5a31cf2
0,      40448,      40448,      256,      512, 2c1e683b600b7213b173ebebdcd26648
0,      40704,      40704,      256,      512, 71d8ee1c619d74255260a62bab31d788
0,      40960,      40960,      256,      512, 2bb98f59e144d609ab642de3585c4453
0,      41216,      41216,      256,      512, cc7ce26d45cf5541fd39d324df585315
0,      41472,      41472,      256,      512, 66acfb9b1669518f6f4ad96010eda07c
0,      41728,      41728,      256,      512, 1c7278436c1372ed2cbcc74d33b76184
0,      41984,      41984,      256,      512, 5a01ddbe8478c98d2b9325073454b414
0,      42240,      42240,      256,      512, 80682f9c52639c67fd960391e94ed774
0,      42496,      42496,      256,      512, c160e399def0f766d2a4ffd0dd57b9c0
0,      42752,      42752,      256,      512, 49545a8f3d4b06308df09031dc023532
0,      43008,      43008,      256,      512, b6339f5d2bfa752d7330e7c1f13e60ec
0,      43264,      43264,      256,      512, fd5040f24bdd348b18a66f118f294e1a
0,      43520,      43520,      256,      512, f9cb1b9ae75530c7155b505742972414
0,      43776,      43776,      256,      512, 53bc7d9157ffa3bd7ad1a4a9ce323304
0,      44032,      44032,      256,      512, 5392675f6e7ea7adb32560f64086920a
0,      44288,      44288,      256,      512, 5d602bfb78aaf046ad10785ef7c0e9f1
0,      44544,      44544,      256,      512, def4937cf933716b81a5d9d6b1051bf3
0,      44800,      44800,      256,      512, 92266671fbadab7b9129ab038bae0d40
0,      45056,      45056,      256,      512, 82a548ccdc11a26b65ec584c6e7e4f1d
0,      45312,      45312,      256,      512, 67515b721ef95856eb4360dff70d1423
0,      45568,      45568,      256,      512, 524e66acdd554b5c046187d24561fdde
0,      45824,      45824,      256,      512, 9d306aef39fd934530b0b486f109bf57
0,      46080,      46080,      256,      512, 07fd46e926089b84cebcea265b3a088d
0,      46336,      46336,      256,      512, e7b6a40f7eab1435dbde4ae8e42eda9a
0,      46592,      46592,      256,      512, b4c974782a93d2ef127102c3956e89da
0,      46848,      46848,      256,      512, 7c5a1f1119404da436f498817c794b97
0,      47104,      47104,      256,      512, 436abf1baadbc798d2c1a3d6d7e28d8c
0,      47360,      47360,      256,      512, 287c3b32496e2dbcefd12d5466405700
0,      47616,      47616,      256,      512, 9de6c5094c145ff715bcd503f0b8a8e3
0,      47872,      47872,      128,      256, 07f410f5d29697deb933cdb402936dd8
